# xmcd
# 
# Track frame offsets:
#     150
#     8797
#     33283
#     47810
#     63945
# 
# Disc length: 1027
# 
# Revision: 10
# Processed by: cddbd v1.5.2PL0 Copyright (c) Steve Scherf et al.
# Submitted via: fre:ac v1.0.31
# 
DISCID=35040105
DTITLE=Queen - News Of The World Disc 2
DYEAR=2011
DGENRE=Rock/Pop
TTITLE0=Feelings Feelings (Take 10, July 1977)
TTITLE1=Spread Your Wings (BBC Session, October 1977)
TTITLE2=My Melancholy Blues (BBC Session, October 1977)
TTITLE3=Sheer Heart Attack (Live in Paris, February 28 1979)
TTITLE4=We Will Rock You (Fast) (Live in Tokyo, November 1982)
EXTD=
EXTT0=
EXTT1=
EXTT2=
EXTT3=
EXTT4=
PLAYORDER=
